<?xml version="1.0" encoding="UTF-8" standalone="no"?>
<svg
   xmlns:dc="http://purl.org/dc/elements/1.1/"
   xmlns:cc="http://creativecommons.org/ns#"
   xmlns:rdf="http://www.w3.org/1999/02/22-rdf-syntax-ns#"
   xmlns:svg="http://www.w3.org/2000/svg"
   xmlns="http://www.w3.org/2000/svg"
   xmlns:sodipodi="http://sodipodi.sourceforge.net/DTD/sodipodi-0.dtd"
   xmlns:inkscape="http://www.inkscape.org/namespaces/inkscape"
   version="1.1"
   x="0px"
   y="0px"
   width="1000"
   height="1339"
   viewBox="0, 0, 1000, 1339"
   id="svg984"
   sodipodi:docname="Silhouette_hand.svg"
   inkscape:version="0.92.3 (2405546, 2018-03-11)">
  <metadata
     id="metadata988">
    <rdf:RDF>
      <cc:Work
         rdf:about="">
        <dc:format>image/svg+xml</dc:format>
        <dc:type
           rdf:resource="http://purl.org/dc/dcmitype/StillImage" />
        <dc:title></dc:title>
      </cc:Work>
    </rdf:RDF>
  </metadata>
  <sodipodi:namedview
     pagecolor="#ffffff"
     bordercolor="#666666"
     borderopacity="1"
     objecttolerance="10"
     gridtolerance="10"
     guidetolerance="10"
     inkscape:pageopacity="0"
     inkscape:pageshadow="2"
     inkscape:window-width="1920"
     inkscape:window-height="974"
     id="namedview986"
     showgrid="false"
     inkscape:zoom="0.58700523"
     inkscape:cx="219.64993"
     inkscape:cy="704.47175"
     inkscape:window-x="0"
     inkscape:window-y="25"
     inkscape:window-maximized="1"
     inkscape:current-layer="svg984" />
  <g
     id="Layer_1"
     transform="matrix(0.09478867,0.45372784,-0.41866928,0.08746458,927.49593,172.04825)">
    <path
       d="m 339,214 c 7.33333,2 13.33333,5.33333 18,10 5.33333,5.33333 12.66667,18.33333 22,39 9.33333,21.33333 22,58.33333 38,111 16,52.66667 28.33333,99.33333 37,140 0,0 13.371,59.25 14,61 0.629,1.75 2.129,2.5 4.879,2 2.75,-0.5 2.121,-5 2.121,-5 l -9,-61 c -6,-40.66667 -15.33333,-85.33333 -28,-134 -12,-48.66667 -19.33333,-81.66667 -22,-99 -2.66667,-17.33333 -2.66667,-29.33333 0,-36 2.66667,-6.66667 8,-12.66667 16,-18 8,-4.66667 17,-5.66667 27,-3 10,2.66667 18.33333,7.33333 25,14 7.33333,7.33333 15,19.66667 23,37 8,17.33333 17,42.66667 27,76 10,33.33333 20,73.33333 30,120 10.66667,47.33333 17,82 19,104 2.66667,22 9.66667,46 21,72 11.33333,26 23,47.66667 35,65 12.66667,18 24.33333,32.33333 35,43 11.33333,10.66667 19.33333,15.66667 24,15 4.66667,-0.66667 9.66667,-4.33333 15,-11 6,-6 18,-29.33333 36,-70 18,-40.66667 32.33333,-67.33333 43,-80 10.66667,-12.66667 21.66667,-23.33333 33,-32 11.33333,-8.66667 22.66667,-15.33333 34,-20 12,-4.66667 23.66667,-7 35,-7 11.33333,0 19.66667,2 25,6 5.33333,4.66667 7.66667,9.33333 7,14 0,4.66667 -4.66667,15.33333 -14,32 -9.33333,16.66667 -22,47 -38,91 -16,44.66667 -25,72 -27,82 -1.33333,10.66667 -1.33333,19.33333 0,26 1.33333,6.66667 1.66667,20.33333 1,41 -0.66667,21.33333 -2.33333,35.66667 -5,43 -2,7.33333 -18,36 -48,86 -29.33333,50.6667 -52,85.3333 -68,104 -16,18.6667 -23.66667,36.6667 -23,54 0.66667,18 6.66667,57.6667 18,119 90.41899,503.5046 212.50054,892.6295 331.256,1293.7698 2.3248,161.2615 -35.5488,294.5172 -169.88581,360.5679 -90.63362,4.8406 -181.26723,9.9295 -271.90085,-151.077 C 507.94913,2277.2838 589.49019,2060.3897 427,1308 c 0.66667,-19.3333 -1,-40 -5,-62 -3.33333,-22 -11.66667,-44 -25,-66 -12.66667,-22 -30,-47.6667 -52,-77 -22,-28.6667 -39.66667,-54.6667 -53,-78 -12.66667,-22.6667 -26.33333,-53 -41,-91 -14,-37.33333 -25,-72 -33,-104 -8,-31.33333 -28.33333,-80.33333 -61,-147 -32.66667,-66 -51.66667,-107 -57,-123 -5.333333,-16 -8,-28 -8,-36 0,-7.33333 3.333333,-14.66667 10,-22 6.66667,-6.66667 12.33333,-10.33333 17,-11 4.66667,-0.66667 9.33333,0 14,2 5.33333,2 30,39.66667 74,113 0,0 62.871,105.75 66,110 3.129,4.25 28.621,16.75 21,-22 -5.08067,-25.83333 -5.08067,-25.83333 0,0 0,-11.33333 -21.33333,-69.33333 -64,-174 0,0 -55.242,-126 -59.242,-143.5 C 166.758,359 168,351 168,351 c 1.33333,-8 4.33333,-14.33333 9,-19 4.66667,-4 11,-7.33333 19,-10 8.66667,-2 15.33333,-2.33333 20,-1 5.33333,2 10,5 14,9 4,4.66667 8.66667,14 14,28 6,14.66667 23.66667,51 53,109 29.33333,58 47.66667,98 55,120 0,0 9.121,28.5 12,33 2.879,4.5 15.871,15.5 13,-8 -1.914,-15.66667 -1.914,-15.66667 0,0 0,-7.33333 -6,-35.33333 -18,-84 -11.33333,-48.66667 -26.33333,-105.66667 -45,-171 0,0 -19.242,-64.5 -23.242,-83 -4,-18.5 -2,-31.5 -2,-31.5 8,-18 9.984,-21 26.242,-25.5 16.258,-4.5 24,-3 24,-3 z"
       id="path979"
       inkscape:connector-curvature="0"
       style="fill:#000000;stroke:#000000;stroke-width:1"
       sodipodi:nodetypes="cscscsscscsscssssccsccscssscsccsccscccscccccccccccccsscsccssccsccccccscsscccscsc" />
  </g>
  <defs
     id="defs982" />
</svg>
