<?xml version="1.0" standalone="no"?>
<!DOCTYPE svg PUBLIC "-//W3C//DTD SVG 20010904//EN"
 "http://www.w3.org/TR/2001/REC-SVG-20010904/DTD/svg10.dtd">
<svg version="1.0" xmlns="http://www.w3.org/2000/svg"
 width="640.000000pt" height="1280.000000pt" viewBox="0 0 640.000000 1280.000000"
 preserveAspectRatio="xMidYMid meet">
<metadata>
Created by potrace 1.15, written by Peter Selinger 2001-2017
</metadata>
<g transform="translate(0.000000,1280.000000) scale(0.100000,-0.100000)"
fill="#000000" stroke="none">
<path d="M4017 12789 c-47 -11 -105 -41 -146 -74 -17 -15 -57 -34 -88 -42 -82
-21 -110 -44 -118 -96 -16 -108 -15 -105 -61 -132 -24 -14 -48 -33 -53 -43 -5
-9 -7 -57 -5 -107 5 -90 27 -230 77 -495 9 -47 26 -137 38 -200 12 -63 26
-169 30 -235 5 -66 13 -182 19 -258 24 -325 32 -580 27 -902 -6 -384 -19 -510
-77 -733 -11 -44 -20 -103 -20 -130 0 -27 -22 -159 -50 -293 -27 -133 -52
-270 -56 -303 -9 -87 -88 -362 -136 -475 -58 -139 -170 -365 -217 -443 -23
-37 -41 -76 -41 -88 0 -25 23 -72 44 -89 12 -10 14 -26 10 -74 -5 -56 -3 -68
26 -122 29 -53 32 -67 31 -133 -1 -65 1 -77 19 -89 20 -14 20 -16 4 -34 -13
-15 -14 -22 -4 -33 9 -12 9 -28 -4 -79 -9 -35 -16 -85 -16 -113 0 -27 -9 -150
-20 -274 -29 -329 -42 -753 -38 -1280 3 -476 1 -524 -42 -950 -33 -319 -65
-508 -140 -810 -39 -159 -54 -230 -65 -311 -6 -46 -5 -47 50 -100 60 -58 99
-78 156 -78 47 -1 51 -7 32 -45 -9 -17 -33 -80 -54 -139 l-37 -108 15 -111
c10 -81 11 -119 4 -141 -6 -16 -11 -50 -11 -74 0 -41 -2 -45 -50 -74 -27 -17
-59 -43 -70 -59 -21 -29 -93 -75 -190 -121 -30 -14 -75 -43 -99 -63 -58 -48
-113 -80 -181 -101 -30 -10 -67 -31 -83 -46 -15 -16 -47 -34 -70 -40 -23 -6
-60 -22 -83 -35 -22 -13 -57 -24 -77 -24 -45 0 -86 -15 -93 -35 -9 -22 4 -82
22 -100 20 -19 115 -20 204 0 36 8 79 14 97 15 24 0 37 8 53 30 26 37 62 56
131 71 47 10 169 61 244 101 17 9 49 37 72 62 29 32 50 46 67 46 30 0 30 3 11
-78 -27 -115 -76 -203 -163 -296 -71 -75 -102 -125 -102 -167 0 -11 -85 -95
-113 -113 -16 -9 -40 -38 -55 -63 -15 -25 -58 -85 -96 -132 -70 -87 -105 -150
-106 -186 0 -13 -13 -28 -36 -40 -24 -13 -43 -33 -54 -60 -10 -22 -34 -53 -54
-68 -20 -16 -43 -41 -51 -58 -9 -16 -33 -40 -55 -54 -22 -14 -40 -32 -40 -40
0 -7 -24 -40 -53 -72 -29 -32 -65 -75 -80 -95 -15 -20 -48 -52 -73 -70 -39
-28 -83 -85 -72 -92 48 -31 109 -33 180 -6 45 17 73 40 178 151 69 73 164 173
212 223 66 69 88 100 93 128 4 23 16 43 31 53 13 8 46 45 74 83 27 37 76 87
107 112 47 37 65 60 95 122 20 42 46 82 58 88 11 6 20 21 20 34 0 19 8 26 43
34 53 14 84 46 133 142 58 111 176 230 228 230 13 0 13 -6 0 -52 -26 -89 -71
-159 -158 -250 -80 -83 -84 -89 -94 -150 -15 -89 -64 -222 -101 -271 -17 -23
-47 -69 -68 -102 -20 -33 -59 -84 -86 -113 -45 -49 -49 -56 -45 -95 3 -23 8
-50 12 -59 6 -13 2 -19 -18 -24 -19 -4 -32 -19 -46 -53 -12 -25 -36 -60 -55
-78 -19 -18 -35 -40 -35 -50 0 -11 -15 -24 -40 -35 -47 -19 -64 -55 -56 -111
6 -36 5 -39 -29 -53 -24 -10 -40 -25 -47 -44 -5 -17 -14 -30 -18 -30 -5 0 -33
-22 -63 -50 -42 -38 -57 -60 -66 -95 -6 -25 -20 -54 -31 -65 -11 -11 -20 -30
-20 -43 0 -31 64 -67 117 -67 38 0 41 3 68 53 16 28 54 77 85 107 76 76 106
118 114 162 4 23 14 39 25 43 34 11 112 100 146 168 19 38 46 82 59 98 14 16
28 46 32 65 5 25 16 42 40 57 25 16 47 47 80 114 25 51 59 104 75 117 24 20
29 33 29 67 0 31 14 70 52 146 44 90 58 109 99 135 53 35 92 94 144 217 38 89
107 212 132 232 23 20 35 -8 27 -71 -8 -78 -39 -162 -81 -226 -33 -50 -37 -64
-44 -147 -6 -76 -13 -105 -43 -167 -20 -41 -36 -81 -36 -90 0 -8 -14 -42 -30
-75 -24 -49 -30 -73 -30 -127 0 -58 -7 -83 -59 -208 -33 -78 -63 -160 -66
-183 -8 -44 -45 -125 -77 -167 -49 -64 -97 -148 -103 -180 -9 -50 10 -72 71
-77 l49 -5 22 46 c13 26 41 66 62 89 22 23 43 56 46 72 9 39 58 135 106 206
20 30 42 75 49 99 6 23 22 68 36 98 14 31 24 74 24 99 0 36 6 50 30 74 16 17
34 49 40 72 6 23 22 76 35 117 13 41 33 114 44 162 11 48 32 105 45 125 14 21
46 100 72 176 38 112 54 146 84 177 37 38 38 39 55 20 15 -17 16 -26 5 -87
-13 -75 -6 -225 14 -283 10 -30 9 -40 -7 -68 -13 -22 -17 -43 -13 -62 8 -40
-38 -394 -59 -450 -9 -25 -20 -88 -25 -140 -7 -73 -16 -111 -39 -160 -56 -118
-49 -202 19 -230 66 -27 88 7 125 191 27 142 33 161 68 245 36 84 45 159 23
183 -16 17 -16 21 3 52 21 37 50 220 53 329 0 36 -5 89 -12 118 -11 45 -10 65
4 140 11 60 16 136 15 244 -1 172 10 217 65 267 14 14 26 29 26 34 0 6 11 33
24 61 21 45 24 71 29 220 5 140 4 173 -9 198 -14 27 -14 31 0 47 22 24 20 30
-9 41 -22 8 -24 12 -13 29 10 16 9 23 -5 39 -14 16 -16 30 -11 78 4 32 13 74
20 92 8 19 13 52 12 73 -1 30 11 63 47 133 47 91 48 95 37 139 -7 25 -12 64
-12 86 0 38 -2 41 -46 61 -38 16 -44 23 -35 34 7 8 22 17 35 20 31 8 46 46 46
117 0 33 5 69 11 81 8 14 8 27 0 47 -17 40 -28 199 -19 261 6 37 5 63 -2 80
-14 29 -27 335 -45 1035 -2 55 -7 120 -13 145 -12 51 -19 331 -8 348 3 6 4 28
0 50 -4 24 -1 48 6 63 15 27 19 139 8 183 -5 19 -3 35 5 44 8 10 11 43 9 101
-2 47 1 113 7 147 6 33 18 189 25 345 13 264 62 695 95 834 8 35 7 43 -12 63
-21 23 -21 24 -4 53 9 17 17 51 17 78 l0 48 65 28 c78 33 78 32 29 170 -20 55
-49 161 -65 235 l-28 135 -1 407 c-1 224 2 413 6 420 14 23 5 379 -11 412 -12
25 -13 57 -7 161 4 72 3 195 -2 275 -10 158 -10 554 0 690 4 47 12 91 18 99 7
9 11 80 12 205 1 213 17 395 43 497 11 43 14 76 9 90 -5 12 -4 36 1 53 6 17
15 67 21 111 6 43 19 109 30 145 10 36 24 99 30 140 6 41 26 122 45 180 18 58
36 125 40 150 10 68 14 77 35 83 12 3 24 -3 34 -17 14 -19 15 -9 15 110 l1
131 -39 44 c-21 24 -50 50 -64 58 -18 10 -28 25 -32 53 -8 48 -45 93 -89 109
-19 7 -41 25 -50 41 -16 26 -22 28 -75 28 -41 0 -62 5 -72 16 -30 37 -96 56
-152 43z m-193 -5939 c7 -138 17 -244 24 -257 8 -14 9 -30 4 -45 -5 -13 -9
-138 -10 -279 l-2 -256 28 5 27 5 -22 -25 c-22 -24 -23 -25 -24 -443 -1 -239
3 -480 10 -560 6 -77 11 -251 11 -387 0 -226 -3 -265 -30 -445 -37 -238 -144
-675 -154 -628 -3 17 -26 91 -50 165 -25 74 -52 176 -61 225 -8 50 -22 115
-30 145 -45 162 -40 1245 6 1425 6 22 15 135 20 250 12 279 22 397 34 415 5 8
10 57 12 108 2 88 4 95 34 134 38 47 51 112 78 388 22 217 34 297 48 319 l16
25 10 -25 c5 -13 15 -130 21 -259z"/>
<path d="M4541 12797 c2 -1 14 -11 27 -21 22 -19 22 -19 22 2 0 17 -6 22 -27
22 -14 0 -24 -1 -22 -3z"/>
</g>
</svg>
